<?xml version="1.0" encoding="UTF-8"?><svg fill="none" height="1830" viewBox="0 0 1506 183" width="15060" xmlns="http://www.w3.org/2000/svg"><path d="m.68 106.88 101.28-61.2v34.08l-54.48 34.08 54.48 32.64v36l-101.28-60zm179.916-101.28001h33.6l62.64 170.40001h-34.08l-15.84-42.48h-59.52l-15.6 42.48h-34.08zm40.32 104.64001-23.52-70.32-24.48 70.32zm143.01 68.16c-9.6 0-18.16-2.16-25.68-6.48s-13.44-10.24-17.76-17.76v21.84h-28.08v-175.200005h32.16v71.520005c4.48-7.52 10.32-13.44 17.52-17.76 7.36-4.32 15.92-6.48 25.68-6.48 10.88 0 20.4 3.04 28.56 9.12 8.32 5.92 14.8 13.84 19.44 23.76s6.96 20.8 6.96 32.64c0 12.16-2.56 23.12-7.68 32.88s-12.16 17.52-21.12 23.28c-8.8 5.76-18.8 8.64-30 8.64zm-8.88-27.36c6.88 0 12.88-1.68 18-5.04 5.28-3.36 9.36-7.84 12.24-13.44 3.04-5.76 4.56-12 4.56-18.72 0-6.88-1.44-13.2-4.32-18.96-2.72-5.92-6.56-10.64-11.52-14.16s-10.64-5.28-17.04-5.28c-7.04 0-13.52 2.4-19.44 7.2-5.76 4.64-10.08 10.4-12.96 17.28v30c2.08 6.24 6.16 11.36 12.24 15.36 6.08 3.84 12.16 5.76 18.24 5.76zm147.549 27.36c-13.76 0-25.6-2.96-35.52-8.88-9.76-6.08-17.28-14.08-22.56-24s-7.92-20.64-7.92-32.16c0-11.68 2.64-22.48 7.92-32.4 5.44-9.92 13.04-17.84 22.8-23.76 9.92-6.08 21.68-9.12 35.28-9.12s25.28 3.04 35.04 9.12c9.92 5.92 17.52 13.84 22.8 23.76s7.92 20.72 7.92 32.4c0 11.52-2.64 22.24-7.92 32.16s-12.88 17.92-22.8 24c-9.76 5.92-21.44 8.88-35.04 8.88zm-32.88-65.04c0 7.36 1.44 13.92 4.32 19.68 2.88 5.6 6.8 10 11.76 13.2s10.56 4.8 16.8 4.8c6.08 0 11.6-1.6 16.56-4.8 4.96-3.36 8.88-7.84 11.76-13.44 3.04-5.76 4.56-12.32 4.56-19.68 0-7.2-1.52-13.6-4.56-19.2-2.88-5.76-6.8-10.24-11.76-13.44-4.96-3.36-10.48-5.04-16.56-5.04-6.24 0-11.84 1.68-16.8 5.04-4.96 3.2-8.88 7.68-11.76 13.44-2.88 5.6-4.32 12.08-4.32 19.44zm119.147 15.6v-78.72h32.16v71.76c0 19.36 6.96 29.04 20.88 29.04 6.24 0 12.24-1.84 18-5.52 5.92-3.84 10.72-9.6 14.4-17.28v-78h32.16v89.76c0 3.52.56 6 1.68 7.44 1.12 1.28 3.12 2.08 6 2.4v26.16c-3.2.64-5.92 1.04-8.16 1.2-2.08.16-4 .24-5.76.24-5.76 0-10.48-1.28-14.16-3.84-3.52-2.72-5.6-6.4-6.24-11.04l-.72-10.08c-5.6 8.64-12.8 15.12-21.6 19.44s-18.48 6.48-29.04 6.48c-12.96 0-22.8-4.16-29.52-12.48-6.72-8.48-10.08-20.8-10.08-36.96zm224.451 40.56c-4.32 1.92-9.68 3.84-16.08 5.76-6.24 1.92-12.72 2.88-19.44 2.88-5.92 0-11.36-1.04-16.32-3.12s-8.96-5.36-12-9.84c-2.88-4.64-4.32-10.64-4.32-18v-72.24h-16.56v-24.72h16.56v-40.8h32.16v40.8h26.4v24.72h-26.4v61.44c0 4.32 1.12 7.44 3.36 9.36 2.4 1.92 5.28 2.88 8.64 2.88s6.64-.56 9.84-1.68 5.76-2.08 7.68-2.88zm158.829 6.48v-111.84l-43.68 83.28h-18.48l-43.68-83.28v111.84h-33.12v-170.40001h35.52l50.4 96.96001 50.88-96.96001h35.278v170.40001zm121.788 2.4c-13.6 0-25.36-2.96-35.28-8.88-9.76-5.92-17.36-13.76-22.8-23.52-5.44-9.92-8.16-20.64-8.16-32.16 0-11.84 2.64-22.72 7.92-32.64 5.44-10.08 13.12-18.08 23.04-24 9.92-6.08 21.76-9.12 35.52-9.12s25.52 3.04 35.28 9.12c9.76 5.92 17.2 13.84 22.32 23.76 5.28 9.76 7.92 20.32 7.92 31.68 0 4.16-.24 7.76-.72 10.8h-97.2c.8 9.76 4.4 17.44 10.8 23.04 6.56 5.6 14.08 8.4 22.56 8.4 6.4 0 12.4-1.52 18-4.56 5.76-3.2 9.68-7.36 11.76-12.48l27.6 7.68c-4.64 9.6-12.08 17.52-22.32 23.76-10.24 6.08-22.32 9.12-36.24 9.12zm-32.88-75.36h65.76c-.96-9.44-4.56-17.04-10.8-22.8-6.08-5.92-13.52-8.88-22.32-8.88-8.64 0-16.08 2.96-22.32 8.88-6.08 5.76-9.52 13.36-10.32 22.8zm322.29-97.44001-119.04 170.40001h-35.52l118.8-170.40001zm122.46 116.88001-101.28 60v-36l54.48-32.64-54.48-34.08v-34.08l101.28 61.2z" fill="#0ddbfd"/></svg>