<?xml version="1.0" encoding="UTF-8"?><svg fill="none" height="640" viewBox="0 0 452 64" width="4520" xmlns="http://www.w3.org/2000/svg"><g fill="#000"><path d="m17.8759 2.13999h9.24l17.226 46.86001h-9.372l-4.356-11.682h-16.368l-4.29004 11.682h-9.371998zm11.088 28.77601-6.468-19.338-6.732 19.338z"/><path d="m80.7656 49h-8.844v-19.404c0-2.772-.484-4.796-1.452-6.072s-2.31-1.914-4.026-1.914c-1.188 0-2.398.308-3.63.924-1.188.616-2.266 1.474-3.234 2.574-.968 1.056-1.672 2.288-2.112 3.696v20.196h-8.844v-34.584h7.986v6.402c1.276-2.156 3.124-3.85 5.544-5.082 2.42-1.276 5.148-1.914 8.184-1.914 2.156 0 3.916.396 5.28 1.188 1.364.748 2.42 1.782 3.168 3.102.748 1.276 1.254 2.728 1.518 4.356.308 1.628.462 3.278.462 4.95z"/><path d="m120.598 49h-8.844v-19.404c0-2.772-.484-4.796-1.452-6.072s-2.31-1.914-4.026-1.914c-1.188 0-2.398.308-3.63.924-1.188.616-2.266 1.474-3.2344 2.574-.968 1.056-1.672 2.288-2.112 3.696v20.196h-8.844v-34.584h7.986v6.402c1.276-2.156 3.124-3.85 5.5444-5.082 2.42-1.276 5.148-1.914 8.184-1.914 2.156 0 3.916.396 5.28 1.188 1.364.748 2.42 1.782 3.168 3.102.748 1.276 1.254 2.728 1.518 4.356.308 1.628.462 3.278.462 4.95z"/><path d="m128.288 9.59799v-8.777998h8.844v8.777998zm0 39.40201v-34.584h8.844v34.584z"/><path d="m161.148 49.66c-3.74 0-6.974-.814-9.702-2.442-2.684-1.628-4.774-3.784-6.27-6.468-1.496-2.728-2.244-5.676-2.244-8.844 0-3.256.726-6.248 2.178-8.976 1.496-2.772 3.608-4.972 6.336-6.6 2.728-1.672 5.984-2.508 9.768-2.508s7.018.836 9.702 2.508c2.684 1.628 4.73 3.806 6.138 6.534 1.452 2.684 2.178 5.588 2.178 8.712 0 1.144-.066 2.134-.198 2.97h-26.73c.22 2.684 1.21 4.796 2.97 6.336 1.804 1.54 3.872 2.31 6.204 2.31 1.76 0 3.41-.418 4.95-1.254 1.584-.88 2.662-2.024 3.234-3.432l7.59 2.112c-1.276 2.64-3.322 4.818-6.138 6.534-2.816 1.672-6.138 2.508-9.966 2.508zm-9.042-20.724h18.084c-.264-2.596-1.254-4.686-2.97-6.27-1.672-1.628-3.718-2.442-6.138-2.442-2.376 0-4.422.814-6.138 2.442-1.672 1.584-2.618 3.674-2.838 6.27z"/><path d="m239.085 36.922c0 2.64-.682 4.862-2.046 6.666-1.364 1.76-3.212 3.102-5.544 4.026-2.288.924-4.796 1.386-7.524 1.386h-22.638v-46.86001h25.08c2.2 0 4.092.594 5.676 1.782 1.584 1.144 2.816 2.64 3.696 4.488.88 1.84801 1.32 3.74001 1.32 5.67601 0 2.288-.572 4.444-1.716 6.468-1.144 1.98-2.816 3.454-5.016 4.422 2.684.792 4.796 2.222 6.336 4.29 1.584 2.068 2.376 4.62 2.376 7.656zm-28.644-26.99401v11.81401h12.144c1.496 0 2.794-.528 3.894-1.584s1.65-2.508 1.65-4.356c0-1.76-.506-3.168-1.518-4.224-.968-1.1-2.178-1.65001-3.63-1.65001zm19.47 25.27801c0-1.716-.528-3.19-1.584-4.422s-2.354-1.848-3.894-1.848h-13.992v12.342h13.53c1.672 0 3.08-.594 4.224-1.782s1.716-2.618 1.716-4.29z"/><path d="m244.876 36.064v-21.648h8.844v19.734c0 5.324 1.914 7.986 5.742 7.986 1.716 0 3.366-.506 4.95-1.518 1.628-1.056 2.948-2.64 3.96-4.752v-21.45h8.844v24.684c0 .968.154 1.65.462 2.046.308.352.858.572 1.65.66v7.194c-.88.176-1.628.286-2.244.33-.572.044-1.1.066-1.584.066-1.584 0-2.882-.352-3.894-1.056-.968-.748-1.54-1.76-1.716-3.036l-.198-2.772c-1.54 2.376-3.52 4.158-5.94 5.346s-5.082 1.782-7.986 1.782c-3.564 0-6.27-1.144-8.118-3.432-1.848-2.332-2.772-5.72-2.772-10.164z"/><path d="m306.596 22.072c-2.684 0-5.082.528-7.194 1.584-2.112 1.012-3.63 2.486-4.554 4.422v20.922h-8.844v-34.584h8.118v7.392c1.188-2.376 2.728-4.246 4.62-5.61 1.936-1.364 3.96-2.112 6.072-2.244.924 0 1.518.022 1.782.066z"/><path d="m324.736 49.198c-3.08 0-5.786-.792-8.118-2.376s-4.158-3.696-5.478-6.336c-1.32-2.684-1.98-5.61-1.98-8.778 0-3.344.682-6.358 2.046-9.042 1.364-2.728 3.256-4.884 5.676-6.468s5.214-2.376 8.382-2.376c2.684 0 5.038.616 7.062 1.848 2.024 1.188 3.696 2.794 5.016 4.818v-6.072h7.722v32.934c0 3.432-.836 6.358-2.508 8.778-1.628 2.464-3.894 4.334-6.798 5.61-2.904 1.32-6.204 1.98-9.9 1.98-3.784 0-6.974-.638-9.57-1.914-2.552-1.232-4.752-2.992-6.6-5.28l4.818-4.686c1.32 1.628 2.97 2.904 4.95 3.828 2.024.924 4.158 1.386 6.402 1.386 1.848 0 3.542-.352 5.082-1.056 1.584-.66 2.86-1.716 3.828-3.168.968-1.408 1.452-3.234 1.452-5.478v-4.356c-1.144 1.98-2.772 3.52-4.884 4.62-2.068 1.056-4.268 1.584-6.6 1.584zm2.97-7.062c1.936 0 3.674-.572 5.214-1.716 1.584-1.144 2.684-2.508 3.3-4.092v-8.25c-.792-2.024-2.046-3.652-3.762-4.884-1.672-1.232-3.432-1.848-5.28-1.848-1.804 0-3.388.506-4.752 1.518-1.32 1.012-2.354 2.332-3.102 3.96-.748 1.584-1.122 3.3-1.122 5.148 0 1.892.418 3.608 1.254 5.148s1.958 2.772 3.366 3.696c1.452.88 3.08 1.32 4.884 1.32z"/><path d="m369.074 49.66c-3.74 0-6.974-.814-9.702-2.442-2.684-1.628-4.774-3.784-6.27-6.468-1.496-2.728-2.244-5.676-2.244-8.844 0-3.256.726-6.248 2.178-8.976 1.496-2.772 3.608-4.972 6.336-6.6 2.728-1.672 5.984-2.508 9.768-2.508s7.018.836 9.702 2.508c2.684 1.628 4.73 3.806 6.138 6.534 1.452 2.684 2.178 5.588 2.178 8.712 0 1.144-.066 2.134-.198 2.97h-26.73c.22 2.684 1.21 4.796 2.97 6.336 1.804 1.54 3.872 2.31 6.204 2.31 1.76 0 3.41-.418 4.95-1.254 1.584-.88 2.662-2.024 3.234-3.432l7.59 2.112c-1.276 2.64-3.322 4.818-6.138 6.534-2.816 1.672-6.138 2.508-9.966 2.508zm-9.042-20.724h18.084c-.264-2.596-1.254-4.686-2.97-6.27-1.672-1.628-3.718-2.442-6.138-2.442-2.376 0-4.422.814-6.138 2.442-1.672 1.584-2.618 3.674-2.838 6.27z"/><path d="m405.283 49.66c-2.948 0-5.764-.484-8.448-1.452s-4.994-2.398-6.93-4.29l3.168-5.742c2.068 1.672 4.092 2.904 6.072 3.696s3.916 1.188 5.808 1.188c1.716 0 3.081-.308 4.093-.924 1.056-.616 1.583-1.54 1.583-2.772 0-1.276-.638-2.134-1.914-2.574-1.276-.484-3.058-1.078-5.346-1.782-2.552-.792-4.685-1.606-6.402-2.442-1.716-.836-3.014-1.848-3.894-3.036-.836-1.188-1.254-2.728-1.254-4.62 0-3.388 1.276-6.094 3.828-8.118s5.94-3.036 10.164-3.036c2.464 0 4.796.396 6.996 1.188 2.201.748 4.202 1.98 6.006 3.696l-3.564 5.61c-3.388-2.64-6.666-3.96-9.834-3.96-1.407 0-2.661.264-3.761.792-1.056.528-1.585 1.452-1.585 2.772 0 1.232.507 2.112 1.518 2.64 1.056.528 2.64 1.1 4.752 1.716 2.728.836 5.039 1.65 6.931 2.442 1.936.792 3.388 1.804 4.355 3.036 1.012 1.232 1.518 2.904 1.518 5.016 0 3.432-1.254 6.116-3.761 8.052-2.508 1.936-5.875 2.904-10.099 2.904z"/><path d="m437.897 49.66c-2.948 0-5.764-.484-8.448-1.452s-4.994-2.398-6.93-4.29l3.168-5.742c2.068 1.672 4.092 2.904 6.072 3.696s3.916 1.188 5.808 1.188c1.716 0 3.08-.308 4.092-.924 1.056-.616 1.584-1.54 1.584-2.772 0-1.276-.638-2.134-1.914-2.574-1.276-.484-3.058-1.078-5.346-1.782-2.552-.792-4.686-1.606-6.402-2.442s-3.014-1.848-3.894-3.036c-.836-1.188-1.254-2.728-1.254-4.62 0-3.388 1.276-6.094 3.828-8.118s5.94-3.036 10.164-3.036c2.464 0 4.796.396 6.996 1.188 2.2.748 4.202 1.98 6.006 3.696l-3.564 5.61c-3.388-2.64-6.666-3.96-9.834-3.96-1.408 0-2.662.264-3.762.792-1.056.528-1.584 1.452-1.584 2.772 0 1.232.506 2.112 1.518 2.64 1.056.528 2.64 1.1 4.752 1.716 2.728.836 5.038 1.65 6.93 2.442 1.936.792 3.388 1.804 4.356 3.036 1.012 1.232 1.518 2.904 1.518 5.016 0 3.432-1.254 6.116-3.762 8.052s-5.874 2.904-10.098 2.904z"/></g></svg>