<?xml version="1.0" encoding="UTF-8"?><svg fill="none" height="1500" viewBox="0 0 480 150" width="4800" xmlns="http://www.w3.org/2000/svg"><path clip-rule="evenodd" d="m248.578 137.67c1.084 0 1.969.135 2.655.406.599.237 1.115.552 1.545.946l.179.173-1.128 1.21c-.487-.464-1.001-.787-1.543-.969-.541-.183-1.111-.274-1.708-.274-.675 0-1.284.124-1.825.373-.541.248-1.007.583-1.394 1.003s-.686.914-.895 1.482c-.21.57-.314 1.174-.314 1.815 0 .664.115 1.28.347 1.848.232.57.553 1.064.962 1.484.41.42.889.748 1.444.985.553.238 1.156.357 1.808.357.563 0 1.097-.053 1.6-.158.42-.087.787-.207 1.102-.36l.183-.096v-3.264h-2.604v-1.491h4.197v5.783c-.287.177-.613.331-.978.464-.365.132-.744.246-1.136.34-.393.093-.792.163-1.195.207s-.782.066-1.135.066c-.996 0-1.883-.166-2.663-.497-.78-.332-1.439-.779-1.974-1.343-.537-.563-.947-1.217-1.229-1.963-.281-.746-.422-1.533-.422-2.362 0-.873.152-1.685.455-2.436.305-.751.724-1.403 1.261-1.955s1.182-.986 1.933-1.301c.753-.315 1.576-.473 2.472-.473zm-100.609.001c.895 0 1.719.157 2.471.472.752.314 1.397.749 1.933 1.301.537.553.956 1.204 1.261 1.955.303.751.455 1.564.455 2.436 0 .873-.152 1.686-.455 2.437-.305.751-.724 1.402-1.261 1.955-.536.552-1.181.987-1.933 1.301-.752.315-1.576.472-2.471.472-.897 0-1.72-.157-2.473-.472-.751-.314-1.396-.749-1.932-1.301-.537-.553-.957-1.204-1.261-1.955s-.456-1.564-.456-2.437c0-.872.152-1.685.456-2.436s.724-1.402 1.261-1.955c.536-.552 1.181-.987 1.932-1.301.753-.315 1.576-.472 2.473-.472zm17.12 0c.895 0 1.719.157 2.471.472.752.314 1.396.749 1.932 1.301.538.553.957 1.204 1.262 1.955.303.751.455 1.564.455 2.436 0 .873-.152 1.686-.455 2.437-.305.751-.724 1.402-1.262 1.955-.536.552-1.18.987-1.932 1.301-.752.315-1.576.472-2.471.472-.897 0-1.72-.157-2.473-.472-.751-.314-1.396-.749-1.932-1.301-.537-.553-.957-1.204-1.261-1.955s-.456-1.564-.456-2.437c0-.872.152-1.685.456-2.436s.724-1.402 1.261-1.955c.536-.552 1.181-.987 1.932-1.301.753-.315 1.576-.472 2.473-.472zm133.934 0c.896 0 1.72.157 2.472.472.752.314 1.396.749 1.932 1.301.537.553.957 1.204 1.261 1.955s.456 1.564.456 2.436c0 .873-.152 1.686-.456 2.437s-.724 1.402-1.261 1.955c-.536.552-1.18.987-1.932 1.301-.752.315-1.576.472-2.472.472s-1.719-.157-2.472-.472c-.751-.314-1.397-.749-1.933-1.301-.537-.553-.956-1.204-1.261-1.955-.303-.751-.455-1.564-.455-2.437 0-.872.152-1.685.455-2.436.305-.751.724-1.402 1.261-1.955.536-.552 1.182-.987 1.933-1.301.753-.315 1.576-.472 2.472-.472zm50.893 0c.643 0 1.256.088 1.843.265.52.157.985.458 1.392.903l.151.174-1.294 1.176c-.2-.309-.482-.558-.846-.745-.366-.188-.78-.282-1.246-.282-.441 0-.809.058-1.102.174s-.529.265-.705.448c-.177.182-.302.378-.373.587-.072.211-.107.405-.107.581 0 .497.142.878.43 1.143.287.265.645.481 1.07.646.426.166.891.315 1.393.448.504.133.968.318 1.394.555.425.237.783.558 1.07.962.287.403.431.958.431 1.665 0 .563-.107 1.072-.323 1.524-.216.454-.506.836-.87 1.144-.366.31-.798.547-1.295.713-.497.165-1.028.248-1.592.248-.753 0-1.466-.132-2.14-.398-.601-.235-1.091-.584-1.472-1.047l-.137-.179 1.31-1.127c.288.431.655.749 1.103.953.449.205.91.307 1.385.307.266 0 .536-.042.813-.124.276-.084.529-.208.754-.374.227-.165.413-.37.556-.613.144-.242.216-.525.216-.845 0-.452-.143-.798-.431-1.035-.288-.238-.644-.437-1.07-.597-.426-.161-.89-.316-1.393-.464-.504-.15-.968-.356-1.393-.622-.427-.264-.783-.621-1.071-1.068-.287-.448-.431-1.053-.431-1.815 0-.343.074-.707.224-1.094.149-.387.384-.739.704-1.06.321-.32.733-.588 1.238-.804.502-.216 1.108-.323 1.814-.323zm-226.448.298 2.595 9.38h.034l2.762-9.38h1.825l2.762 9.38h.033l2.596-9.38h1.659l-3.417 11.733h-1.692l-2.836-9.579h-.034l-2.82 9.579h-1.693l-3.434-11.733zm208.649 0 6.469 9.645h.033v-9.645h1.593v11.733h-2.023l-6.536-9.645h-.033v9.645h-1.593v-11.733zm-21.199 0 2.595 9.38h.034l2.762-9.38h1.825l2.761 9.38h.034l2.596-9.38h1.659l-3.417 11.733h-1.693l-2.836-9.579h-.033l-2.82 9.579h-1.693l-3.434-11.733zm-130.27 0c.829 0 1.556.094 2.181.282.625.187 1.167.439 1.626.754.46.315.841.677 1.145 1.085.304.409.544.829.721 1.259.177.431.304.863.381 1.293.078.431.116.829.116 1.194 0 .751-.137 1.477-.414 2.179-.277.701-.686 1.326-1.227 1.872-.542.547-1.214.986-2.016 1.318-.713.294-1.524.458-2.433.491l-.345.006h-3.832v-11.733zm15.859 0c.509 0 .982.061 1.418.182.437.122.813.302 1.128.539.316.237.564.541.747.911.182.37.273.804.273 1.301 0 .674-.188 1.224-.563 1.649-.33.372-.743.658-1.242.857l-.218.08v.033c.353.022.685.113.994.273.31.16.579.371.806.629.225.26.406.562.538.904.133.343.2.712.2 1.111 0 .529-.108.996-.324 1.4-.216.403-.511.742-.887 1.019-.377.277-.813.486-1.311.629-.415.121-.857.19-1.325.21l-.284.006h-4.031v-11.733zm24.733 0v11.733h-1.592v-11.733zm10.169 0c.829 0 1.556.094 2.181.282.625.187 1.167.439 1.626.754s.84.677 1.145 1.085c.304.409.543.829.721 1.259.176.431.303.863.381 1.293.077.431.116.829.116 1.194 0 .751-.138 1.477-.415 2.179-.276.701-.685 1.326-1.227 1.872-.542.547-1.213.986-2.016 1.318-.712.294-1.523.458-2.432.491l-.346.006h-3.832v-11.733zm35.582 0v1.492h-5.988v3.496h5.573v1.491h-5.573v3.762h6.286v1.492h-7.879v-11.733zm-56.666 0c.752 0 1.372.102 1.857.307.488.204.872.463 1.154.779.282.314.478.667.588 1.06.111.392.167.77.167 1.135 0 .376-.066.738-.2 1.086-.132.347-.323.662-.572.944s-.553.52-.913.713c-.298.161-.627.271-.984.328l-.218.028 3.335 5.353h-1.991l-2.987-5.171h-1.773v5.171h-1.593v-11.733zm78.297 0v1.491h-3.782v10.242h-1.593v-10.242h-3.782v-1.491zm10.401 1.193c-.675 0-1.283.125-1.825.373-.541.248-1.007.582-1.394 1.002s-.686.915-.895 1.483c-.21.57-.314 1.175-.314 1.815 0 .641.104 1.246.314 1.815.209.569.508 1.064.895 1.483.387.42.853.754 1.394 1.002.542.249 1.15.374 1.825.374s1.283-.125 1.824-.374c.542-.248 1.007-.582 1.394-1.002.388-.419.686-.914.896-1.483s.315-1.174.315-1.815c0-.64-.105-1.245-.315-1.815-.21-.568-.508-1.063-.896-1.483-.387-.42-.852-.754-1.394-1.002-.541-.248-1.149-.373-1.824-.373zm-133.934 0c-.676 0-1.284.125-1.825.373-.542.248-1.007.582-1.395 1.002-.387.42-.685.915-.895 1.483-.21.57-.314 1.175-.314 1.815 0 .641.104 1.246.314 1.815s.508 1.064.895 1.483c.388.42.853.754 1.395 1.002.541.249 1.149.374 1.825.374.674 0 1.282-.125 1.824-.374.542-.248 1.006-.582 1.394-1.002.387-.419.686-.914.895-1.483.21-.569.315-1.174.315-1.815 0-.64-.105-1.245-.315-1.815-.209-.568-.508-1.063-.895-1.483-.388-.42-.852-.754-1.394-1.002s-1.15-.373-1.824-.373zm-17.12 0c-.676 0-1.284.125-1.825.373-.542.248-1.007.582-1.395 1.002-.387.42-.685.915-.895 1.483-.21.57-.314 1.175-.314 1.815 0 .641.104 1.246.314 1.815s.508 1.064.895 1.483c.388.42.853.754 1.395 1.002.541.249 1.149.374 1.825.374.674 0 1.282-.125 1.824-.374.542-.248 1.007-.582 1.394-1.002.387-.419.686-.914.895-1.483.21-.569.315-1.174.315-1.815 0-.64-.105-1.245-.315-1.815-.209-.568-.508-1.063-.895-1.483s-.852-.754-1.394-1.002-1.15-.373-1.824-.373zm48.404 5.072h-2.354v4.076h2.339c.243 0 .511-.025.803-.075.294-.05.567-.149.823-.298.254-.149.468-.35.646-.605.177-.254.266-.591.266-1.01 0-.696-.228-1.219-.68-1.567-.454-.348-1.068-.521-1.843-.521zm34.92-4.774h-2.39v8.75h2.008c.674 0 1.314-.09 1.916-.273.603-.183 1.131-.456 1.584-.82s.813-.821 1.078-1.367c.266-.547.399-1.185.399-1.914 0-.376-.062-.815-.183-1.318-.122-.502-.351-.981-.689-1.433-.337-.453-.803-.838-1.4-1.153-.599-.314-1.373-.472-2.323-.472zm-50.761 0h-2.39v8.75h2.008c.675 0 1.314-.09 1.916-.273.603-.183 1.131-.456 1.584-.82.454-.364.813-.821 1.079-1.367.265-.547.398-1.185.398-1.914 0-.376-.062-.815-.183-1.318-.121-.502-.351-.981-.688-1.433-.337-.453-.804-.838-1.401-1.153-.599-.314-1.373-.472-2.323-.472zm29.345-.099h-2.089v3.778h2.089c.31 0 .617-.024.921-.074s.574-.141.813-.273c.237-.133.429-.323.571-.573.145-.248.216-.571.216-.969s-.071-.721-.216-.97c-.142-.248-.334-.438-.571-.571-.239-.133-.509-.224-.813-.274-.304-.049-.611-.074-.921-.074zm-13.354 0h-2.504v3.48h2.173c.298 0 .58-.03.846-.091.265-.061.496-.163.697-.307.198-.143.356-.326.473-.546.115-.221.173-.492.173-.812 0-.465-.15-.868-.448-1.211-.298-.342-.768-.513-1.41-.513zm-36.274-139.361c17.47 0 28.7 5.50976 38.855 15.0952l.353.336-3.713 3.5607c-8.911-10.23729-19.306-16.91494-35.495-16.91494-29.407 0-45.15 24.18474-45.15 51.04084 0 26.8539 15.743 51.0382 45.15 51.0382 13.623 0 26.234-5.0512 36.837-15.2969l.441-.4299 1.634 1.6322c-10.99 11.2756-25.099 16.1716-38.912 16.1716-29.407 0-52.872-23.7386-52.872-53.1152 0-29.3788 23.465-53.1178 52.872-53.1178zm266.581.00031211c29.555 0 53.17 23.59048789 53.17 53.11668789 0 29.5253-23.615 53.117-53.17 53.117-29.554 0-53.169-23.5917-53.169-53.117 0-29.5262 23.615-53.11668789 53.169-53.11668789zm-357.3246 1.18684789c17.2282 0 27.6244 11.42484 27.6244 30.26704 0 14.8379-7.4258 25.0752-18.2682 28.7844 11.4617 2.3489 16.9618 11.0876 17.0776 22.0496l.0018.3543v15.4302c0 4.0063.5939 5.9353 2.5253 8.0123-5.8417 0-9.5293-3.012-9.6506-7.6277l-.0031-.236v-16.6167c0-9.4005-2.9112-19.6746-17.6686-19.8792l-.4508-.0031h-5.4946v43.3237h-7.1294v-97.47836c0-2.27915-.1371-3.60075-1.3305-6.06619l-.1547-.31429zm-46.6329.00041c2.4577 0 4.6354 1.96908 5.1592 4.40144l.0389.1982 17.2282 92.73059c.285 1.7122.5709 3.8362 2.1773 6.2392l.1992.29h-10.2486c.9967-2.418 1.0383-4.153.6473-6.2531l-.0534-.2761-2.3755-12.9075h-30.00082l-3.41549 19.4367h-2.22879l16.9318-94.9573c.7207-4.17594.6018-5.97639-.6277-8.65602l-.1149-.24611zm252.1775.00042v2.07592h-25.841v43.47379h25.841v2.0769h-25.841v54.1544h22.277c2.104 0 3.943-.529 5.643-1.588l.299-.193 1.187 1.633c-1.992 1.564-3.848 2.175-6.222 2.223l-.313.003h-30.001v-97.47957c0-2.27914-.136-3.60075-1.33-6.06528l-.155-.31416zm-50.789-.00052v97.47983c0 2.2777.137 3.6007 1.329 6.0657l.155.314h-8.613v-43.3244h-47.229v21.0688h-7.129v-59.3486h7.129v36.2029h47.229v-58.45823zm100.394-.00031v2.07696h-17.228v95.40288c0 2.279.137 3.601 1.329 6.065l.155.314h-10.098c1.283-2.563 1.471-3.896 1.484-6.0989l.001-.2801v-95.40288h-17.228v-2.07696zm44.552 0v2.07696h-17.228v95.40288c0 2.279.137 3.601 1.331 6.065l.154.314h-10.098c1.283-2.563 1.47-3.896 1.483-6.0989l.001-.2801v-95.40288h-17.227v-2.07696zm57.623.89011c-29.554 0-45.446 25.81703-45.446 51.03973 0 25.2238 15.892 51.04 45.446 51.04 29.555 0 45.448-25.8162 45.448-51.04 0-25.2227-15.893-51.03973-45.448-51.03973zm-406.4827 1.78053c-.1275 0-.1457.10916-.1483.14035l-.0005.00822-14.10909 79.52703h29.11059l-14.704-79.52703s0-.14857-.1487-.14857zm47.3755-.59368h-2.5242v56.38128h2.5242c14.8517 0 21.6837-11.1277 21.6837-28.1912 0-17.0624-5.3468-28.19008-21.6837-28.19008z" fill="#231f20" fill-rule="evenodd"/></svg>