<?xml version="1.0" encoding="UTF-8"?><svg fill="none" height="1750" viewBox="0 0 480 175" width="4800" xmlns="http://www.w3.org/2000/svg"><g clip-rule="evenodd" fill="#fff" fill-rule="evenodd"><path d="m12.4115 2.81731 22.2279 51.43899 22.3081-51.43899 12.4131 64.76579h-6.9786l-7.8668-41.4439h-.1632l-19.7126 43.9607-19.6324-43.9607h-.1632l-7.8668 41.4439h-6.9757793z"/><path d="m148.702 43.8543-10.222-24.5415-10.468 24.5415-2.756 6.3391-7.382 17.3902h-7.463l28.23-64.19752 27.502 64.19752h-7.546l-7.219-17.3902z"/><path d="m218.549 34.6727h2.108c7.707 0 15.493-1.4635 15.493-10.9707 0-10.0755-7.38-11.0512-15.573-11.0512h-2.028zm0 32.9123h-6.813v-61.27329h8.841c11.6 0 22.388 3.08778 22.388 16.90239 0 9.4269-5.921 16.0903-15.332 16.9024l19.469 27.4685h-8.354l-18.497-26.9003h-1.702z"/><path d="m301.458 61.2442h16.876v6.3391h-23.688v-61.27049h6.812z"/><path d="m365.35 67.5842h6.813v-61.27055h-6.813z"/><path d="m422.739 3.71204 47.699 50.05866v-47.45871h6.815v64.03401l-47.699-49.9755v47.212h-6.815z"/><path d="m32.2067 115.774c-2.435-4.225-5.3542-6.661-10.548-6.661-5.4318 0-10.1386 3.9-10.1386 9.504 0 5.283 5.4345 7.723 9.5713 9.588l4.0565 1.791c7.9498 3.495 14.6821 7.472 14.6821 17.226 0 10.727-8.6 18.934-19.2256 18.934-9.8148 0-17.11431-6.339-19.06509-15.846l6.6548-1.871c.89376 6.259 5.67799 11.378 12.24979 11.378s12.5736-5.039 12.5736-11.946c0-7.151-5.595-9.588-11.2758-12.188l-3.7328-1.624c-7.1363-3.251-13.3013-6.91-13.3013-15.686 0-9.507 8.03-15.599 17.1143-15.599 6.8125 0 12.5736 3.492 15.8194 9.504z"/><path d="m96.2947 131.944h4.5433c7.543 0 13.955-2.275 13.955-11.051 0-9.995-8.033-10.724-15.983-10.724h-2.5153zm0 33.156h-6.8125v-61.273h10.0583c5.2715 0 10.7085.164 15.1695 3.251 4.54 3.171 6.892 8.532 6.892 13.976 0 4.959-2.025 9.998-5.838 13.166-4.137 3.415-9.411 4.063-14.519 4.063h-4.9503z"/><path d="m176.769 132.188h2.108c7.706 0 15.496-1.461 15.496-10.968 0-10.078-7.383-11.051-15.576-11.051h-2.028zm0 32.912h-6.813v-61.27h8.841c11.599 0 22.388 3.087 22.388 16.899 0 9.43-5.919 16.093-15.329 16.905l19.466 27.466h-8.354l-18.495-26.897h-1.704z"/><path d="m253.757 165.099h6.813v-61.271h-6.813z"/><path d="m317.647 101.227 47.701 50.058v-47.458h6.813v64.034l-47.696-49.973v47.212h-6.818z"/><path d="m476.845 134.302c.166 8.287-.727 15.114-6.325 21.614-5.598 6.503-14.118 10.239-22.632 10.239-17.2 0-31.478-14.302-31.478-31.529 0-17.554 14.278-31.854 31.882-31.854 10.708 0 19.386 4.793 25.877 13.244l-4.947 4.632c-5.111-7.229-12.006-11.537-21.01-11.537-13.955 0-24.987 11.781-24.987 25.595 0 6.5 2.598 12.678 7.139 17.31 4.461 4.471 10.952 7.8 17.361 7.8 10.625 0 21.821-7.8 21.821-19.178h-18.172v-6.336z"/></g></svg>