<?xml version="1.0" encoding="UTF-8"?><svg height="1340" viewBox="0 0 297 67" width="5940" xmlns="http://www.w3.org/2000/svg" xmlns:xlink="http://www.w3.org/1999/xlink"><mask id="a" fill="#fff"><path d="m.00285714.46574088h38.46666666v47.95500332h-38.46666666z" fill="#fff" fill-rule="evenodd"/></mask><mask id="b" fill="#fff"><path d="m.47761905.75665371h2.00809524v2.00934509h-2.00809524z" fill="#fff" fill-rule="evenodd"/></mask><g fill="#3ccea7" fill-rule="evenodd"><path d="m27.312381 14.1675108c0-7.33010612-4.6571429-12.74428076-10.952381-12.74428076h-.4809524v23.56786406c.9571429.138214 1.9142857.204938 2.9428572.204938 4.8619047 0 8.4904762-3.0121113 8.4904762-11.0285213m11.1571428-.6863038c0 7.5350441-5.2714286 12.8824948-17.0428571 12.8824948-2.1238096 0-4.0380953-.138214-5.5476191-.3431519v14.0453984c0 3.6269251 1.9142857 6.7772503 5.0666667 8.216582v.1382139h-20.94285716v-.1382139c3.14761905-1.4393317 5.12857143-4.5896569 5.12857143-8.216582v-31.24112212c0-3.63169109-1.98095238-6.7820163-5.12857143-8.22134793v-.13821397h23.88571426c7.3238096 0 14.5809524 4.3847189 14.5809524 13.01594272" mask="url(#a)" transform="translate(0 .299781)"/><path d="m61.1942857 35.5697051c0-11.7148251-4.1761905-20.8989048-8.3523809-20.8989048-2.2571429 0-4.7238096 4.2512709-4.7238096 13.0874327 0 11.7148251 4.2476191 20.8941388 8.352381 20.8941388 2.2571428 0 4.7238095-4.2465049 4.7238095-13.0826667m-23.2047619-3.8413951c0-11.848273 8.8285714-17.8772615 16.5619048-17.8772615 7.0523809 0 16.7714285 5.5476226 16.7714285 17.7438136 0 11.848273-8.8285714 17.8820275-16.6333333 17.8820275-6.9809524 0-16.7-5.5523886-16.7-17.7485796"/><path d="m72.9666667 48.5832648c3.4904762-1.8492075 3.6285714-4.5896568 3.6285714-8.2213479v-31.23635619c0-3.63169109-.1380952-6.3721404-3.6285714-8.22134794v-.13821397h13.347619v39.5959181c0 3.6316911.1380953 6.3721404 3.6285714 8.2213479v.138214h-16.9761904z"/><path d="m114.584286 35.5697051c0-11.7148251-4.171429-20.8989048-8.347619-20.8989048-2.261905 0-4.72381 4.2512709-4.72381 13.0874327 0 11.7148251 4.242857 20.8941388 8.347619 20.8941388 2.261905 0 4.72381-4.2465049 4.72381-13.0826667m-23.2047622-3.8413951c0-11.848273 8.8285712-17.8772615 16.5666662-17.8772615 7.04762 0 16.766667 5.5476226 16.766667 17.7438136 0 11.848273-8.828571 17.8820275-16.628571 17.8820275-6.985715 0-16.7047622-5.5523886-16.7047622-17.7485796"/><path d="m134.024762 48.5832648c3.147619-1.4393316 5.133333-4.5896568 5.133333-8.2213479v-38.63795234h-4.242857c-5.066667 0-8.557143 3.63169109-11.771428 11.50988714h-.138096l1.095238-12.4678529h40.795238l1.166667 12.4678529h-.142857c-3.214286-7.87819605-6.704762-11.50988714-11.838095-11.50988714h-4.176191v38.63795234c0 3.6316911 1.914286 6.7820163 5.066667 8.2213479v.138214h-20.947619z"/><path d="m176.738095 27.6900792c.342857-6.6485683-1.3-12.4011288-4.585714-12.4011288h-.138095v25.0739197c0 3.6316911.138095 6.3721404 3.628571 8.2213479v.138214h-16.97619v-.138214c3.490476-1.8492075 3.628571-4.5896568 3.628571-8.2213479v-17.5388756c0-3.6269251-.138095-6.3673744-3.628571-8.216582v-.1382139h15.880952c5.133333 0 9.376191 1.6395036 10.404762 8.6979478z"/><path d="m202.612381 41.0477441v-15.96133c-6.776191 5.5476226-8.485714 6.5770783-8.485714 13.6355226 0 4.1797809 2.533333 6.9869542 4.652381 6.9869542 2.123809 0 3.833333-1.7157595 3.833333-4.6611468m13.209524 7.5350441v.138214h-13.209524v-4.108291c-2.190476 1.8492075-5.885714 4.4514429-8.966667 4.4514429-6.095238 0-8.690476-4.5229329-8.690476-8.149858 0-5.0710227 3.009524-7.2633821 8.961905-10.7568593 6.571428-3.903353 8.971428-5.7573265 8.971428-9.7988935 0-2.8738973-1.371428-5.2711947-3.971428-5.2711947-3.695238 0-9.92381 5.6143466-12.390476 7.8067061l-.138096-.138214 5.680953-7.6065341c3.080952-.5433239 7.052381-1.1629037 11.090476-1.1629037 6.77619 0 9.033333 3.7031811 9.033333 8.01641v18.3586274c0 3.6316911.138096 6.3721404 3.628572 8.2213479"/><path d="m244.092857 14.4672922v.1382139c-1.166667 1.0961798-2.261905 3.5602011-4.109524 8.2928379l-10.061904 25.8221816h-.133334l-10.747619-25.8936715c-1.438095-3.4267532-3.080952-7.1251682-4.519047-8.221348v-.1382139h16.361904v.1382139c-3.904762 1.3678417-3.7 3.6316911-2.328571 7.1918922l5.47619 14.1121225 5.2-13.6307566c1.438096-3.836629 1.3-6.4436304-2.395238-7.6732581v-.1382139z"/><path d="m252.100476 27.7596628h11.433334c-.276191-7.811472-2.671429-13.0874327-5.819048-13.0874327-2.257143 0-5.614286 3.6984151-5.614286 13.0874327m19.714286 9.5224656.133333.066724c-1.704762 5.5523886-6.361905 11.986487-13.619047 11.986487-7.047619 0-14.92381-5.5476226-14.92381-17.6723236 0-11.924529 8.490476-17.8105375 15.747619-17.8105375 6.980953 0 12.795238 5.4761326 13.347619 14.8651503h-20.4c.342857 9.5224656 5.952381 12.9492187 10.609524 12.9492187 2.87619 0 6.3-1.6490355 9.104762-4.3847189"/><path d="m273.796667 48.5832648c3.490476-1.8492075 3.628571-4.5896568 3.628571-8.2213479v-31.23635619c0-3.63169109-.138095-6.3721404-3.628571-8.22134794v-.13821397h13.347619v39.5959181c0 3.6316911.138095 6.3721404 3.628571 8.2213479v.138214h-16.97619z"/><path d="m280.649048 59.4788147-.261905 3.3933911h-7.133333v-.02383c.571428-.2621299.933333-.8388158.933333-1.4965236v-5.6953686c0-.6577078-.361905-1.2343937-.933333-1.4965236v-.02383h3.814285v.02383c-.571428.2621299-.923809.8388158-.923809 1.4965236v7.0441463h1.485714c1.685714 0 2.442857-1.6347376 2.995238-3.2218152z"/><path d="m281.567143 60.5773774v-3.7699051h-.709524v-.1477459c.833333-.038128 1.871429-.9627318 2.457143-2.1256355h.023809v2.0970395h1.1v.1763419h-1.1v3.984375c0 .9722638.085715 1.4822257 1.457143 2.0589115v.019064c-3.252381.16681-3.228571-.7720918-3.228571-2.2924454"/><path d="m288.175238 62.6996767v-5.8907746h-.347619c-.771429 0-1.4.295492-1.4 2.2161895 0 2.0636775.785714 3.6745851 1.72381 3.6745851zm2.433333.1477459v.02383h-2.895238c-1.795238 0-3.104762-.8960078-3.104762-2.9310892 0-2.3448715 1.761905-3.3076032 3.280953-3.3076032h.285714v-.9770298c0-.6577078-.023809-1.1581377-.661905-1.4965236v-.02383h2.433334v7.2157222c0 .6577078.023809 1.1629037.661904 1.4965236z"/><path d="m.47761905 1.75274746c0-.54808986.44761905-.99609375 1.00952381-.99609375.55238095 0 1 .44800389 1 .99609375 0 .56238786-.44761905 1.01515774-1 1.01515774-.56190476 0-1.00952381-.45276988-1.00952381-1.01515774" mask="url(#b)" transform="translate(290.47619 60.257766)"/></g></svg>