<?xml version="1.0" encoding="UTF-8"?><svg fill="none" height="480" viewBox="0 0 460 48" width="4600" xmlns="http://www.w3.org/2000/svg"><path clip-rule="evenodd" d="m88.9426 22.8516c0 2.1402.3871 4.1541 1.1641 6.0417.7769 1.8905 1.8484 3.5258 3.2116 4.9114 1.3603 1.3856 2.9563 2.4879 4.7823 3.3069 1.826.8191 3.8094 1.2258 5.9524 1.2258 2.137 0 4.12-.4067 5.946-1.2258 1.829-.819 3.422-1.9213 4.785-3.3069s2.435-3.0209 3.209-4.9114c.777-1.8876 1.167-3.9015 1.167-6.0417 0-2.1429-.39-4.154-1.167-6.0445-.774-1.8877-1.846-3.5341-3.209-4.9422-1.363-1.4052-2.956-2.51594-4.785-3.33497-1.826-.81902-3.809-1.22853-5.946-1.22853-2.143 0-4.1264.40951-5.9524 1.22853-1.826.81903-3.422 1.92977-4.7823 3.33497-1.3632 1.4081-2.4347 3.0545-3.2116 4.9422-.777 1.8905-1.1641 3.9016-1.1641 6.0445zm-7.7442 0c0-3.1919.5974-6.1707 1.7951-8.9419 1.1949-2.7684 2.8217-5.18062 4.8777-7.2394 2.056-2.05598 4.4794-3.68 7.2702-4.87768 2.7909-1.197686 5.7616-1.79232055 8.9116-1.79232055 3.144 0 6.114.59463455 8.905 1.79232055 2.791 1.19768 5.214 2.8217 7.273 4.87768 2.056 2.05878 3.683 4.471 4.878 7.2394 1.195 2.7712 1.795 5.75 1.795 8.9419 0 3.1471-.6 6.1063-1.795 8.8747-1.195 2.7712-2.822 5.1862-4.878 7.2422-2.059 2.0559-4.482 3.6828-7.273 4.8777-2.791 1.1948-5.761 1.7923-8.905 1.7923-3.15 0-6.1207-.5975-8.9116-1.7923-2.7908-1.1949-5.2142-2.8218-7.2702-4.8777-2.056-2.056-3.6828-4.471-4.8777-7.2422-1.1977-2.7684-1.7951-5.7276-1.7951-8.8747zm71.3886-22.036203v37.016003h15.485v7.0542h-23.039v-44.070203zm39.597 44.070003h-7.551v-44.070283h24.613v6.860733h-17.062v11.20825h15.929v6.8636h-15.929zm34.877-44.070003h25.182v6.860733h-17.626v11.20827h16.238v6.6728h-16.238v12.4677h17.75v6.8607h-25.306zm40.857 22.036203c0-3.1919.575-6.1791 1.731-8.97 1.152-2.7908 2.748-5.21703 4.785-7.27301 2.033-2.05317 4.437-3.67439 7.208-4.84963 2.769-1.172441 5.77-1.75866055 9.004-1.75866055 4.235 0 8.243 1.15280055 12.022 3.46122055v8.24358c-1.93-1.4642-3.86-2.55809-5.792-3.27053-1.933-.71525-3.989-1.06866-6.168-1.06866-2.14 0-4.135.39829-5.983 1.19488-1.849.79658-3.428 1.88771-4.752 3.27051-1.321 1.3856-2.361 3.0236-3.116 4.9141-.757 1.8877-1.133 3.924-1.133 6.1062 0 2.1402.376 4.1456 1.133 6.0109.755 1.868 1.795 3.5089 3.116 4.9141 1.324 1.4053 2.898 2.5048 4.721 3.3014 1.826.7966 3.831 1.1977 6.014 1.1977 2.14 0 4.196-.3563 6.168-1.0715 1.971-.7124 3.943-1.7615 5.918-3.1499v8.1258c-2.014 1.2145-4.05 2.098-6.106 2.6393-2.059.547-4.093.8191-6.107.8191-3.276 0-6.297-.5778-9.065-1.7278-2.771-1.1528-5.164-2.7628-7.178-4.816-2.014-2.056-3.587-4.471-4.72-7.2422-1.133-2.7684-1.7-5.7696-1.7-9.0009zm57.666 0c0 2.1402.387 4.1541 1.164 6.0417.777 1.8905 1.848 3.5258 3.211 4.9114 1.364 1.3856 2.96 2.4879 4.786 3.3069 1.825.8191 3.808 1.2258 5.949 1.2258 2.137 0 4.123-.4067 5.949-1.2258 1.826-.819 3.422-1.9213 4.782-3.3069 1.363-1.3856 2.435-3.0209 3.212-4.9114.777-1.8876 1.164-3.9015 1.164-6.0417 0-2.1429-.387-4.154-1.164-6.0445-.777-1.8877-1.849-3.5341-3.212-4.9422-1.36-1.4052-2.956-2.51594-4.782-3.33497-1.826-.81902-3.812-1.22853-5.949-1.22853-2.141 0-4.124.40951-5.949 1.22853-1.826.81903-3.422 1.92977-4.786 3.33497-1.363 1.4081-2.434 3.0545-3.211 4.9422-.777 1.8905-1.164 3.9016-1.164 6.0445zm-7.742 0c0-3.1919.598-6.1707 1.793-8.9419 1.197-2.7684 2.821-5.18062 4.877-7.2394 2.056-2.05598 4.483-3.68 7.271-4.87768 2.793-1.197686 5.764-1.79232055 8.911-1.79232055s6.114.59463455 8.908 1.79232055c2.791 1.19768 5.214 2.8217 7.27 4.87768 2.056 2.05878 3.683 4.471 4.881 7.2394 1.192 2.7712 1.792 5.75 1.792 8.9419 0 3.1471-.6 6.1063-1.792 8.8747-1.198 2.7712-2.825 5.1862-4.881 7.2422-2.056 2.0559-4.479 3.6828-7.27 4.8777-2.794 1.1948-5.761 1.7923-8.908 1.7923s-6.118-.5975-8.911-1.7923c-2.788-1.1949-5.215-2.8218-7.271-4.8777-2.056-2.056-3.68-4.471-4.877-7.2422-1.195-2.7684-1.793-5.7276-1.793-8.8747zm71.327-1.7639h6.294c2.224 0 4.039-.5975 5.444-1.7952 1.408-1.1948 2.11-2.8637 2.11-5.0039 0-2.1401-.702-3.7866-2.11-4.94217-1.405-1.1528-3.22-1.73061-5.444-1.73061h-6.294zm0 23.7965h-7.492v-44.070205h13.786c2.224 0 4.258.297315 6.106.883535 1.849.58903 3.439 1.45854 4.783 2.61415 1.343 1.15561 2.384 2.56085 3.119 4.21573.732 1.65769 1.102 3.55659 1.102 5.69949 0 3.2733-.926 5.98-2.771 8.1173-1.849 2.143-4.241 3.6352-7.178 4.4738l12.97 18.0662h-8.878l-12.15-17.4379h-3.397zm48.221-23.9225h6.861c2.224 0 4.039-.575 5.447-1.7306 1.405-1.1528 2.109-2.8021 2.109-4.9422s-.704-3.7866-2.109-4.94219c-1.408-1.1528-3.223-1.73061-5.447-1.73061h-6.861zm6.734-20.147425c2.267 0 4.334.308535 6.205.917195 1.865.60585 3.469 1.47817 4.813 2.61134 1.343 1.13317 2.381 2.53842 3.116 4.21854.735 1.68015 1.102 3.58745 1.102 5.72755s-.367 4.0418-1.102 5.6967c-.735 1.6577-1.773 3.0545-3.116 4.1877-1.344 1.1332-2.948 2.0027-4.813 2.6113-1.871.6115-3.938.9116-6.205.9116h-6.734v17.1883h-7.557v-44.070225zm-426.8878 44.071125 18.7198-43.8515h6.8747l-18.7169 43.8515zm47.3391-43.85094h6.8775l-18.7197 43.85144h-6.8776zm-64.57505586 0h6.88597586l8.60538 19.43784h-6.88599z" fill="#fff" fill-rule="evenodd"/></svg>